<mxfile host="app.diagrams.net" agent="Mozilla/5.0 (Windows NT 10.0; Win64; x64) AppleWebKit/537.36 (KHTML, like Gecko) Chrome/130.0.0.0 Safari/537.36" version="24.8.6">
  <diagram name="Page-1" id="Tz7L5756_1JB_fjBQkaa">
    <mxGraphModel dx="447" dy="222" grid="1" gridSize="10" guides="1" tooltips="1" connect="1" arrows="1" fold="1" page="1" pageScale="1" pageWidth="850" pageHeight="1100" math="0" shadow="0">
      <root>
        <mxCell id="0" />
        <mxCell id="1" parent="0" />
        <mxCell id="071c9aJxDS3kiMfwyO00-1" value="" style="endArrow=none;html=1;rounded=0;strokeWidth=2;" edge="1" parent="1">
          <mxGeometry width="50" height="50" relative="1" as="geometry">
            <mxPoint x="80" y="280" as="sourcePoint" />
            <mxPoint x="470" y="280" as="targetPoint" />
          </mxGeometry>
        </mxCell>
        <mxCell id="071c9aJxDS3kiMfwyO00-2" value="Labelling machine" style="rounded=0;whiteSpace=wrap;html=1;strokeWidth=2;fontSize=11;" vertex="1" parent="1">
          <mxGeometry x="80" y="170" width="200" height="40" as="geometry" />
        </mxCell>
        <mxCell id="071c9aJxDS3kiMfwyO00-5" value="" style="endArrow=none;html=1;rounded=0;strokeWidth=2;" edge="1" parent="1">
          <mxGeometry width="50" height="50" relative="1" as="geometry">
            <mxPoint x="200" y="285" as="sourcePoint" />
            <mxPoint x="200" y="275" as="targetPoint" />
          </mxGeometry>
        </mxCell>
        <mxCell id="071c9aJxDS3kiMfwyO00-6" value="(0, 0)" style="text;html=1;align=center;verticalAlign=middle;whiteSpace=wrap;rounded=0;fontSize=11;" vertex="1" parent="1">
          <mxGeometry x="170" y="280" width="60" height="30" as="geometry" />
        </mxCell>
        <mxCell id="071c9aJxDS3kiMfwyO00-8" value="" style="endArrow=none;html=1;rounded=0;strokeWidth=2;" edge="1" parent="1">
          <mxGeometry width="50" height="50" relative="1" as="geometry">
            <mxPoint x="118" y="280" as="sourcePoint" />
            <mxPoint x="118" y="240" as="targetPoint" />
          </mxGeometry>
        </mxCell>
        <mxCell id="071c9aJxDS3kiMfwyO00-9" value="" style="endArrow=none;html=1;rounded=0;strokeWidth=2;entryX=-0.024;entryY=0.327;entryDx=0;entryDy=0;entryPerimeter=0;" edge="1" parent="1" target="071c9aJxDS3kiMfwyO00-19">
          <mxGeometry width="50" height="50" relative="1" as="geometry">
            <mxPoint x="80" y="280" as="sourcePoint" />
            <mxPoint x="110" y="240" as="targetPoint" />
          </mxGeometry>
        </mxCell>
        <mxCell id="071c9aJxDS3kiMfwyO00-10" value="" style="ellipse;whiteSpace=wrap;html=1;aspect=fixed;fillColor=#000000;" vertex="1" parent="1">
          <mxGeometry x="315" y="195" width="10" height="10" as="geometry" />
        </mxCell>
        <mxCell id="071c9aJxDS3kiMfwyO00-11" value="" style="ellipse;whiteSpace=wrap;html=1;aspect=fixed;fillColor=#000000;" vertex="1" parent="1">
          <mxGeometry x="415" y="194" width="10" height="10" as="geometry" />
        </mxCell>
        <mxCell id="071c9aJxDS3kiMfwyO00-12" value="(80, 70)" style="text;html=1;align=center;verticalAlign=middle;whiteSpace=wrap;rounded=0;fontSize=11;" vertex="1" parent="1">
          <mxGeometry x="220" y="185" width="70" height="30" as="geometry" />
        </mxCell>
        <mxCell id="071c9aJxDS3kiMfwyO00-13" value="(120, 80)" style="text;html=1;align=center;verticalAlign=middle;whiteSpace=wrap;rounded=0;fontSize=11;" vertex="1" parent="1">
          <mxGeometry x="280" y="197" width="80" height="30" as="geometry" />
        </mxCell>
        <mxCell id="071c9aJxDS3kiMfwyO00-14" value="(220, 80)" style="text;html=1;align=center;verticalAlign=middle;whiteSpace=wrap;rounded=0;fontSize=11;" vertex="1" parent="1">
          <mxGeometry x="378" y="196" width="80" height="30" as="geometry" />
        </mxCell>
        <mxCell id="071c9aJxDS3kiMfwyO00-15" value="Box" style="rounded=0;whiteSpace=wrap;html=1;" vertex="1" parent="1">
          <mxGeometry x="340" y="219" width="80" height="60" as="geometry" />
        </mxCell>
        <mxCell id="071c9aJxDS3kiMfwyO00-16" value="" style="endArrow=none;html=1;rounded=0;strokeWidth=2;" edge="1" parent="1">
          <mxGeometry width="50" height="50" relative="1" as="geometry">
            <mxPoint x="420" y="285" as="sourcePoint" />
            <mxPoint x="420" y="275" as="targetPoint" />
          </mxGeometry>
        </mxCell>
        <mxCell id="071c9aJxDS3kiMfwyO00-17" value="(220, 0)" style="text;html=1;align=center;verticalAlign=middle;whiteSpace=wrap;rounded=0;fontSize=11;" vertex="1" parent="1">
          <mxGeometry x="390" y="280" width="60" height="30" as="geometry" />
        </mxCell>
        <mxCell id="071c9aJxDS3kiMfwyO00-19" value="Box" style="rounded=0;whiteSpace=wrap;html=1;dashed=1;" vertex="1" parent="1">
          <mxGeometry x="120" y="219" width="80" height="60" as="geometry" />
        </mxCell>
        <mxCell id="071c9aJxDS3kiMfwyO00-22" value="" style="curved=1;endArrow=classic;html=1;rounded=0;entryX=1.022;entryY=0.594;entryDx=0;entryDy=0;entryPerimeter=0;exitX=1.022;exitY=0.577;exitDx=0;exitDy=0;exitPerimeter=0;endSize=3;dashed=1;" edge="1" parent="1" source="071c9aJxDS3kiMfwyO00-15" target="071c9aJxDS3kiMfwyO00-15">
          <mxGeometry width="50" height="50" relative="1" as="geometry">
            <mxPoint x="390" y="215" as="sourcePoint" />
            <mxPoint x="440" y="165" as="targetPoint" />
            <Array as="points">
              <mxPoint x="310" y="255" />
              <mxPoint x="250" y="256" />
              <mxPoint x="180" y="250" />
              <mxPoint x="280" y="220" />
              <mxPoint x="310" y="190" />
              <mxPoint x="430" y="170" />
              <mxPoint x="460" y="210" />
            </Array>
          </mxGeometry>
        </mxCell>
      </root>
    </mxGraphModel>
  </diagram>
</mxfile>
